<?xml version="1.0" encoding="UTF-8"?>
<svg version="1.1" xmlns="http://www.w3.org/2000/svg" width="1024" height="1024">
<path d="M0 0 C337.92 0 675.84 0 1024 0 C1024 337.92 1024 675.84 1024 1024 C686.08 1024 348.16 1024 0 1024 C0 686.08 0 348.16 0 0 Z " fill="#000000" transform="translate(0,0)"/>
<path d="M0 0 C3.43587968 1.2657318 6.28318877 2.71762904 9.265625 4.8359375 C10.06436035 5.39933838 10.8630957 5.96273926 11.68603516 6.54321289 C12.95519775 7.44994751 12.95519775 7.44994751 14.25 8.375 C15.579104 9.31557251 15.579104 9.31557251 16.93505859 10.27514648 C18.75533683 11.56373672 20.57418524 12.85434913 22.39160156 14.14697266 C24.74306189 15.81746909 27.10003896 17.47960097 29.4609375 19.13671875 C37.44518751 24.74351077 45.37244628 30.42491655 53.27441406 36.14697266 C62.74195548 42.99552838 72.29636292 49.71978937 81.87890625 56.40625 C91.58764383 63.18221823 101.24039006 70.02498707 110.82421875 76.9765625 C115.15142886 80.11480456 119.49755825 83.22610241 123.86450195 86.30883789 C126.96892443 88.50985939 130.01414522 90.76785844 133.0234375 93.09765625 C133.69737549 93.61247559 134.37131348 94.12729492 135.06567383 94.65771484 C136.36689806 95.65459356 137.65898957 96.66354382 138.94018555 97.68603516 C142.32274186 100.35877142 142.32274186 100.35877142 146.4519043 100.79345703 C149.14105719 99.9560759 150.8159055 98.96428644 153.046875 97.26171875 C153.8004126 96.69509521 154.5539502 96.12847168 155.33032227 95.54467773 C156.52806274 94.62537476 156.52806274 94.62537476 157.75 93.6875 C159.46114305 92.3995835 161.17340415 91.11315127 162.88671875 89.828125 C163.74571777 89.18166016 164.6047168 88.53519531 165.48974609 87.86914062 C169.13300544 85.15636164 172.84034994 82.54046043 176.5625 79.9375 C182.40923639 75.83782088 188.21827242 71.69088251 194 67.5 C201.92330395 61.76055243 209.90133186 56.10276189 217.90429688 50.47509766 C219.98486243 49.01065484 222.06316142 47.54305809 224.140625 46.07421875 C230.04554723 41.8995954 235.95210157 37.7277935 241.8828125 33.58984375 C243.567747 32.41411791 245.25264248 31.23833615 246.9375 30.0625 C247.77539062 29.47774902 248.61328125 28.89299805 249.4765625 28.29052734 C255.13119186 24.3342502 260.73183062 20.30970826 266.3125 16.25 C271.97805294 12.14621787 277.66319989 8.07475961 283.4375 4.125 C284.05858643 3.68961914 284.67967285 3.25423828 285.31958008 2.80566406 C287.05859375 1.6328125 287.05859375 1.6328125 290 0 C293 1 293 1 294.26757812 3.05932617 C294.68458984 3.96142822 295.10160156 4.86353027 295.53125 5.79296875 C296.00699463 6.80464111 296.48273926 7.81631348 296.97290039 8.85864258 C297.47684326 9.95716553 297.98078613 11.05568848 298.5 12.1875 C303.10724379 22.1225597 303.10724379 22.1225597 308.12890625 31.8515625 C314.23424432 43.13509844 317.46105986 52.70468201 318.70214844 65.44970703 C319.2349911 70.01206318 320.16463294 74.49782657 321.0625 79 C321.40716149 80.76674951 321.75094705 82.53367019 322.09375 84.30078125 C322.33158203 85.524021 322.33158203 85.524021 322.57421875 86.77197266 C323.28124668 90.47170712 323.90207522 94.18303856 324.49609375 97.90234375 C324.90563906 100.41993625 325.33896457 102.93019522 325.78515625 105.44140625 C325.9236499 106.23458252 326.06214355 107.02775879 326.20483398 107.8449707 C326.47657195 109.40039817 326.75310539 110.95499877 327.03540039 112.50854492 C328.65481171 121.89403062 327.80029658 128.80650516 324.875 137.8125 C324.55950195 138.81498779 324.24400391 139.81747559 323.91894531 140.8503418 C322.95602646 143.90352857 321.97850317 146.9517781 321 150 C320.16872328 152.62880789 319.34123311 155.25878317 318.51416016 157.88891602 C318.00875802 159.49183199 317.50066254 161.09390149 316.98974609 162.69506836 C315.75295241 166.57182861 314.5831017 170.45190488 313.5 174.375 C312.42831278 177.96666773 311.01104198 181.25677738 309.41015625 184.64453125 C306.90042761 190.02198173 304.47166323 195.42804446 302.08984375 200.86328125 C301.4030602 202.42515897 300.71621054 203.98700763 300.02929688 205.54882812 C298.97770835 207.94117355 297.92800773 210.33427044 296.88354492 212.72973633 C295.85382922 215.0892919 294.81624272 217.44525723 293.77734375 219.80078125 C293.47199203 220.50616531 293.16664032 221.21154938 292.85203552 221.93830872 C289.35496816 229.82834178 284.84720269 236.50448744 279.125 242.9375 C278.05443048 244.16270192 276.98541195 245.38926086 275.91796875 246.6171875 C275.41056152 247.20081055 274.9031543 247.78443359 274.38037109 248.38574219 C272.66321396 250.39385024 271.03874917 252.46110279 269.4375 254.5625 C266.1483584 258.87849556 262.6531828 263.00008191 259.12133789 267.11767578 C255.64927583 271.17924331 252.38529979 275.3599345 249.2421875 279.68359375 C242.99650243 286.13601752 234.38071019 290.14470591 226.5625 294.375 C225.07459961 295.19291016 225.07459961 295.19291016 223.55664062 296.02734375 C222.61111328 296.54167969 221.66558594 297.05601562 220.69140625 297.5859375 C219.41052124 298.28275635 219.41052124 298.28275635 218.10375977 298.99365234 C216 300 216 300 214 300 C217.74509049 310.1931694 222.04421032 320.10009258 226.44415283 330.02316284 C228.44977932 334.54844377 230.44366672 339.07888831 232.4375 343.609375 C233.02659653 344.94753517 233.02659653 344.94753517 233.62759399 346.31272888 C237.00829639 354.00073492 240.34220789 361.70714409 243.625 369.4375 C244.07955566 370.50121826 244.53411133 371.56493652 245.00244141 372.66088867 C245.40640137 373.61713135 245.81036133 374.57337402 246.2265625 375.55859375 C246.57283691 376.37642334 246.91911133 377.19425293 247.27587891 378.03686523 C248 380 248 380 248 382 C246.32617188 383.33764648 246.32617188 383.33764648 243.96875 384.87109375 C243.1034668 385.43973145 242.23818359 386.00836914 241.34667969 386.59423828 C239.93757324 387.50665283 239.93757324 387.50665283 238.5 388.4375 C236.55670564 389.71395202 234.61400234 390.9913043 232.671875 392.26953125 C231.70572266 392.9032666 230.73957031 393.53700195 229.74414062 394.18994141 C226.05020251 396.62649454 222.39284449 399.11288553 218.75 401.625 C218.10740234 402.0674707 217.46480469 402.50994141 216.80273438 402.96582031 C213.5451197 405.21668472 210.30379333 407.48874203 207.078125 409.78515625 C197.71685259 416.44915123 188.234825 422.89799186 178.63671875 429.2175293 C171.29300854 434.07041565 164.16607182 439.1740641 157.09326172 444.41210938 C155.61561375 445.49925841 154.12109832 446.56338502 152.625 447.625 C151.66851563 448.31851562 150.71203125 449.01203125 149.7265625 449.7265625 C147 451 147 451 144.60546875 450.51953125 C141.17924562 448.52132915 137.92717171 446.34895452 134.6875 444.0625 C133.25399687 443.06367201 131.82040052 442.0649778 130.38671875 441.06640625 C129.65759277 440.55609863 128.9284668 440.04579102 128.17724609 439.52001953 C124.79798608 437.16082769 121.39865595 434.83111864 118 432.5 C116.6626463 431.5808952 115.32540693 430.661624 113.98828125 429.7421875 C113.32779785 429.28811523 112.66731445 428.83404297 111.98681641 428.36621094 C110.02610875 427.01795337 108.06574217 425.66920132 106.10546875 424.3203125 C104.79950404 423.42183884 103.49351427 422.52340162 102.1875 421.625 C101.20148804 420.94667114 101.20148804 420.94667114 100.19555664 420.25463867 C96.6603798 417.82407132 93.1217274 415.39873795 89.578125 412.98046875 C80.60862291 406.8585335 71.66521106 400.70080521 62.75 394.5 C61.78570068 393.8294458 60.82140137 393.1588916 59.82788086 392.46801758 C54.86233994 389.0098808 49.91476763 385.5299436 45 382 C45.59571625 377.28140654 46.92337545 373.41364699 48.81640625 369.05859375 C49.10481888 368.38998322 49.39323151 367.72137268 49.69038391 367.03250122 C50.64158785 364.83143773 51.60208567 362.63455821 52.5625 360.4375 C53.22933585 358.89798969 53.89550296 357.35818956 54.56103516 355.81811523 C56.33091017 351.72683559 58.10856127 347.63898566 59.88861084 343.55212402 C62.86756395 336.71144384 65.83860278 329.86733244 68.80685425 323.02200317 C69.86245265 320.59139142 70.92231072 318.1626705 71.98266602 315.73413086 C72.63179866 314.24077719 73.28081208 312.7473717 73.9296875 311.25390625 C74.22692215 310.57627228 74.5241568 309.89863831 74.83039856 309.20046997 C76.14272942 306.17102875 77.35331208 303.24625036 78 300 C77.36578125 299.76796875 76.7315625 299.5359375 76.078125 299.296875 C71.84310802 297.51257851 67.81566303 295.38781342 63.75 293.25 C62.94175781 292.83234375 62.13351562 292.4146875 61.30078125 291.984375 C52.02525768 287.11658023 44.60454697 282.3250116 38.125 274 C37.52768066 273.25451904 36.93036133 272.50903809 36.31494141 271.7409668 C34.52887218 269.50492627 32.76141967 267.25548876 31 265 C30.50177734 264.36400879 30.00355469 263.72801758 29.49023438 263.07275391 C25.76243798 258.31246619 25.76243798 258.31246619 24.05444336 256.10839844 C20.29913429 251.29152034 16.33219782 246.67231558 12.23388672 242.14379883 C4.45488535 233.33145938 -0.16787172 222.72340901 -4.95898438 212.1159668 C-5.99156972 209.83115378 -7.03406174 207.55107164 -8.078125 205.27148438 C-12.32876348 195.9481904 -16.2967403 186.55446841 -20 177 C-20.29664551 176.25145752 -20.59329102 175.50291504 -20.89892578 174.73168945 C-23.65969373 167.62955421 -25.73653738 160.28608689 -27.92919922 152.99414062 C-30.14792633 145.62822071 -30.14792633 145.62822071 -32.703125 138.375 C-36.62855041 127.87632044 -35.89902839 119.76183647 -34 109 C-33.67307087 106.98220811 -33.34899517 104.96395242 -33.02734375 102.9453125 C-32.21859921 97.93163629 -31.37140754 92.92579321 -30.50170898 87.92236328 C-29.97546045 84.85706162 -29.47372744 81.78825904 -28.97265625 78.71875 C-28.07321607 73.30012848 -26.92181159 67.9678283 -25.68359375 62.6171875 C-25.13786611 59.72950869 -24.87392498 57.11732866 -24.6953125 54.203125 C-24.15920296 48.45607409 -22.04150564 43.96739496 -19.4375 38.875 C-18.98858398 37.9662915 -18.53966797 37.05758301 -18.07714844 36.12133789 C-16.73238924 33.40680183 -15.36752176 30.70312285 -14 28 C-13.25496318 26.50207065 -12.51135737 25.00342824 -11.76953125 23.50390625 C-10.16254329 20.26247999 -8.53967109 17.02945647 -6.90820312 13.80029297 C-5.43045875 10.87102226 -3.96589598 7.93521695 -2.5 5 C-1.66666667 3.33333333 -0.83333333 1.66666667 0 0 Z " fill="#F4F4F4" transform="translate(367,404)"/>
<path d="M0 0 C3.02220526 1.46956647 5.59598152 3.08593678 8.2734375 5.125 C9.49957764 6.0533667 9.49957764 6.0533667 10.75048828 7.00048828 C11.61657715 7.66032715 12.48266602 8.32016602 13.375 9 C20.89048434 14.68211058 28.46815627 20.24515869 36.15722656 25.68847656 C39.00578374 27.71582807 41.83808233 29.76548964 44.67041016 31.81542969 C46.21254094 32.93057352 47.75646454 34.04324262 49.30224609 35.15332031 C52.91978751 37.75335544 56.51103231 40.37559016 60.046875 43.0859375 C60.67464844 43.55837891 61.30242187 44.03082031 61.94921875 44.51757812 C63.11367695 45.39534217 64.26820108 46.28651262 65.41015625 47.19335938 C68.06362481 49.17193829 69.47617154 50.04934517 72.82495117 49.73388672 C75.96521101 49.00804119 78.81683027 48.06537425 81.81640625 46.890625 C82.91146484 46.46523437 84.00652344 46.03984375 85.13476562 45.6015625 C86.26591797 45.15554687 87.39707031 44.70953125 88.5625 44.25 C90.79296875 43.38020833 93.0234375 42.51041667 95.25390625 41.640625 C96.23689697 41.25422852 97.2198877 40.86783203 98.23266602 40.46972656 C98.80742172 40.25713699 99.38217743 40.04454742 99.97434998 39.82551575 C102.09226012 39.00112836 102.09226012 39.00112836 104.37635803 37.74613953 C116.16890359 32.13538485 128.96518425 33.25784249 141.73828125 33.30078125 C144.34938379 33.2948628 146.96048361 33.2876121 149.57157898 33.27909851 C155.02920361 33.26549168 160.48649386 33.27343111 165.9440918 33.29321289 C172.21043997 33.31554334 178.47575597 33.29799702 184.7420066 33.26016361 C190.82096619 33.22489305 196.89946387 33.22379925 202.97850609 33.23604393 C205.54146624 33.23751999 208.10444962 33.22996522 210.66735268 33.21279335 C225.14232177 33.13155027 236.83750505 33.69787178 250 40 C252.41668468 40.9786182 254.85146548 41.89218547 257.29296875 42.80859375 C258.43701172 43.24494141 259.58105469 43.68128906 260.75976562 44.13085938 C262.45649414 44.77764648 262.45649414 44.77764648 264.1875 45.4375 C265.36119141 45.89576172 266.53488281 46.35402344 267.74414062 46.82617188 C268.87400391 47.25349609 270.00386719 47.68082031 271.16796875 48.12109375 C272.17110107 48.5070874 273.1742334 48.89308105 274.20776367 49.29077148 C277.29137296 50.07400878 278.98963147 49.9568432 282 49 C284.77291668 47.15208342 284.77291668 47.15208342 287.625 44.75 C293.07565323 40.38819642 298.71014595 36.39857448 304.5 32.5 C311.05033431 28.07265573 317.37427689 23.49887758 323.59765625 18.62109375 C327.82348956 15.33290343 332.16140183 12.19948622 336.5 9.0625 C337.64964233 8.2281543 337.64964233 8.2281543 338.82250977 7.37695312 C342.46509395 4.75181231 346.09291626 2.22486713 350 0 C349.27150133 6.74819824 347.91286113 13.17143513 346.23828125 19.74462891 C344.82345177 25.5482222 343.8086978 31.25374585 343.1860199 37.18765259 C340.05372169 66.54798887 340.05372169 66.54798887 332.95800781 73.27148438 C326.28100397 78.59928492 318.35993126 81.73905346 310.40722656 84.64941406 C306.23952988 86.30144172 302.61471632 88.45211217 298.86865234 90.89404297 C297 92 297 92 295 92 C299.29951659 97.08995696 305.40677818 99.73826517 311.17773438 102.84570312 C312.00724609 103.30783203 312.83675781 103.76996094 313.69140625 104.24609375 C314.44623291 104.65529053 315.20105957 105.0644873 315.97875977 105.48608398 C320.98464265 109.2355078 322.10312635 115.13650699 323.6640625 120.88671875 C323.90160248 121.74376907 324.13914246 122.6008194 324.38388062 123.48384094 C324.88335357 125.29410905 325.3790135 127.105433 325.87109375 128.91772461 C326.61860121 131.66399151 327.38262335 134.40527382 328.1484375 137.14648438 C328.6338204 138.91378599 329.11822658 140.68135621 329.6015625 142.44921875 C329.94062119 143.66069832 329.94062119 143.66069832 330.28652954 144.89665222 C333.12380064 155.46463518 333.50535899 162.6403553 329.23046875 172.86328125 C328.63616814 174.35579659 328.63616814 174.35579659 328.02986145 175.87846375 C326.76900576 179.0316015 325.47894781 182.17178574 324.1875 185.3125 C323.33071503 187.439964 322.47587787 189.56821353 321.62304688 191.69726562 C319.74341978 196.37882475 317.84545809 201.05243237 315.93058777 205.71968079 C315.26944328 207.33975418 314.67132578 208.98617619 314.11807251 210.64619446 C312.80598467 213.40844789 311.9415519 214.00622263 309.21557617 215.29248047 C308.4368364 215.66992401 307.65809662 216.04736755 306.85575867 216.43624878 C306.01003799 216.82595856 305.16431732 217.21566833 304.29296875 217.6171875 C302.97840446 218.24755417 302.97840446 218.24755417 301.63728333 218.89065552 C298.82777094 220.23428863 296.00831908 221.5552932 293.1875 222.875 C290.41549864 224.18860036 287.64575627 225.5068454 284.87670898 226.82666016 C283.07976921 227.68277766 281.28160059 228.53632096 279.48217773 229.38720703 C273.34265366 232.30467124 267.37855292 235.42268627 261.47729492 238.80029297 C257.62737876 240.66473448 254.87458574 240.33333274 251 239 C249.82050781 238.63648438 248.64101563 238.27296875 247.42578125 237.8984375 C242.50135087 236.3438648 237.63143685 234.72302315 232.90625 232.62890625 C227.1223029 230.09878555 221.05343692 228.2822522 215.0625 226.3125 C213.79352695 225.89285877 212.5246459 225.47293921 211.25585938 225.05273438 C208.17146469 224.0324213 205.08616878 223.01493165 202 222 C201.61062256 223.03568115 201.61062256 223.03568115 201.21337891 224.09228516 C199.85210915 227.35440242 198.25692511 230.40829918 196.5859375 233.5234375 C196.08593735 234.45828476 196.08593735 234.45828476 195.57583618 235.41201782 C194.51133756 237.40100083 193.44326457 239.38803757 192.375 241.375 C191.68074649 242.67044267 190.98673416 243.96601462 190.29296875 245.26171875 C188.90578419 247.85186195 187.51729552 250.4412997 186.12792969 253.03027344 C182.73971784 259.34697813 179.37054978 265.6738591 176 272 C175.34 272 174.68 272 174 272 C173.56768066 271.18547363 173.13536133 270.37094727 172.68994141 269.53173828 C170.67005318 265.72855432 168.64801286 261.92652251 166.625 258.125 C166.26229004 257.44304565 165.89958008 256.76109131 165.52587891 256.05847168 C160.70403923 246.99745805 155.8412057 237.96576025 150.74462891 229.05517578 C148 224.2086854 148 224.2086854 148 222 C142.69218241 223.53361123 137.46087129 225.13955453 132.30078125 227.125 C123.02060363 230.65430354 113.62122083 233.82271163 104.1796875 236.88671875 C101.12055221 237.85629704 101.12055221 237.85629704 98.9453125 239.14453125 C96.11695661 240.38832631 94.0865024 240.24938921 91 240 C88.45394753 238.93987751 86.14348374 237.84888388 83.73046875 236.546875 C82.30816052 235.80721043 80.88545719 235.06830523 79.46240234 234.33007812 C78.72890564 233.94505127 77.99540894 233.56002441 77.23968506 233.16333008 C73.58100988 231.26295267 69.87684798 229.4566069 66.17578125 227.640625 C64.70084257 226.91082141 63.22623339 226.1803515 61.75195312 225.44921875 C59.51108778 224.3380663 57.26939049 223.22881097 55.0246582 222.12548828 C52.80134233 221.03203864 50.58200722 219.93085217 48.36328125 218.828125 C47.69557205 218.50201233 47.02786285 218.17589966 46.33992004 217.83990479 C38.27615087 213.80947338 35.28596931 210.48598546 32.37109375 202.17578125 C32.05471451 201.31494431 31.73833527 200.45410736 31.41236877 199.56718445 C30.40608196 196.82070567 29.42112063 194.06716802 28.4375 191.3125 C27.44606156 188.57740576 26.45023492 185.84396508 25.45191956 183.1113739 C24.83363824 181.41461163 24.21998773 179.71615168 23.61192322 178.01570129 C21.88997374 173.24033449 19.97984722 168.64730276 17.75819397 164.08073425 C15.18200802 157.01083056 18.77179253 149.08988899 20.9855957 142.31518555 C22.94893489 136.30575201 24.51840274 130.25154268 26.0078125 124.109375 C26.17200684 123.48015137 26.33620117 122.85092773 26.50537109 122.20263672 C27.05990303 119.9004439 27.05990303 119.9004439 27.35791016 117.11376953 C28.1272879 112.32444926 28.79682957 109.08943081 32.47412109 105.75976562 C35.61830569 103.76586778 38.79605229 102.0413981 42.125 100.375 C44.3377692 99.19875185 46.54880664 98.0192381 48.7578125 96.8359375 C49.7389502 96.33626465 50.72008789 95.8365918 51.73095703 95.32177734 C54.12629714 94.20386687 54.12629714 94.20386687 55 92 C54.11787842 91.72760498 53.23575684 91.45520996 52.3269043 91.17456055 C49.23562917 90.08318866 46.61339065 88.82203299 43.76953125 87.20703125 C42.31643555 86.38428711 42.31643555 86.38428711 40.83398438 85.54492188 C39.33834961 84.68737305 39.33834961 84.68737305 37.8125 83.8125 C36.83474609 83.26013672 35.85699219 82.70777344 34.84960938 82.13867188 C31.88426809 80.45119081 28.94253433 78.72687586 26 77 C24.97052246 76.42556152 23.94104492 75.85112305 22.88037109 75.25927734 C21.39851318 74.39423584 21.39851318 74.39423584 19.88671875 73.51171875 C18.99557373 73.00471436 18.10442871 72.49770996 17.1862793 71.9753418 C14.25719356 69.32886131 13.74376875 66.72781722 13 63 C12.81092575 62.15684738 12.6218515 61.31369476 12.42704773 60.44499207 C11.75130253 57.41057365 11.10761475 54.37051588 10.46875 51.328125 C10.23216675 50.20992371 9.9955835 49.09172241 9.75183105 47.93963623 C9.25312299 45.57980036 8.75563 43.21970742 8.25927734 40.859375 C7.50534064 37.27538777 6.74712244 33.69232663 5.98828125 30.109375 C5.50234848 27.80734563 5.0166634 25.50526395 4.53125 23.203125 C4.30723511 22.144422 4.08322021 21.08571899 3.85241699 19.99493408 C2.45717668 13.34827021 1.1789136 6.68842488 0 0 Z " fill="#F5F5F4" transform="translate(338,184)"/>
<path d="M0 0 C4.21244426 14.15148324 7.43403443 28.5043884 10.63627625 42.90939331 C12.20959152 49.97161574 13.84957825 57.01792672 15.5 64.0625 C15.79148926 65.30821777 16.08297852 66.55393555 16.38330078 67.83740234 C17.25462277 71.55848247 18.12711131 75.2792871 19 79 C20.08477352 83.62466399 21.16826655 88.24962393 22.25 92.875 C22.52626221 94.05602295 22.80252441 95.2370459 23.0871582 96.45385742 C24.99460614 104.63111354 26.87583411 112.81415858 28.74609375 121 C28.98774261 122.05712189 29.22939148 123.11424377 29.47836304 124.20339966 C30.68547601 129.48517453 31.89065797 134.76737845 33.09277344 140.05029297 C33.54469146 142.03097706 33.99683525 144.01160967 34.44921875 145.9921875 C34.666315 146.94543915 34.88341125 147.8986908 35.10708618 148.88082886 C36.09457309 153.18644014 37.10780977 157.47993983 38.22119141 161.75488281 C38.40945999 162.47999054 38.59772858 163.20509827 38.79170227 163.95217896 C39.28973016 165.84688178 39.80017745 167.73830857 40.31176758 169.62939453 C41.04458271 173.218343 41.25881882 176.34720004 41 180 C39.456432 182.31983044 38.07588383 184.0756412 36.1875 186.0625 C35.16945094 187.19574369 34.15390075 188.3312363 33.140625 189.46875 C32.61791016 190.04882812 32.09519531 190.62890625 31.55664062 191.2265625 C29.05731364 194.07397643 26.75105128 197.0637289 24.4375 200.0625 C20.05165185 205.71135889 15.52237047 211.21650929 10.8984375 216.671875 C8.98838915 218.84100989 8.98838915 218.84100989 8 221 C7.34 221 6.68 221 6 221 C5.60844727 220.29206299 5.21689453 219.58412598 4.81347656 218.85473633 C-5.03183891 201.06280809 -5.03183891 201.06280809 -15.0625 183.375 C-21.18780343 172.70468432 -27.19598491 161.97026573 -33.19580078 151.22900391 C-36.23118258 145.79653305 -39.27190142 140.36705216 -42.3125 134.9375 C-42.90345459 133.88191895 -43.49440918 132.82633789 -44.10327148 131.73876953 C-47.54664113 125.58951394 -51.00007532 119.44607391 -54.46264648 113.30761719 C-56.82454616 109.11179086 -59.16386677 104.90380132 -61.49609375 100.69140625 C-62.12854004 99.54986084 -62.76098633 98.40831543 -63.41259766 97.23217773 C-64.71544866 94.88013928 -66.01540644 92.52652969 -67.31396484 90.17211914 C-70.29195004 84.79157014 -73.30136922 79.44435679 -76.48046875 74.1796875 C-77.00398926 73.30739502 -77.52750977 72.43510254 -78.06689453 71.53637695 C-79.03959524 69.92743535 -80.02561341 68.32644463 -81.02685547 66.73510742 C-82.31640625 64.59765625 -82.31640625 64.59765625 -84 61 C-82.94508513 57.84160355 -81.43163838 56.28511318 -78.71875 54.44140625 C-78.05109619 53.98000244 -77.38344238 53.51859863 -76.69555664 53.04321289 C-75.97102295 52.55457764 -75.24648926 52.06594238 -74.5 51.5625 C-72.94590413 50.49061267 -71.39254197 49.41766093 -69.83984375 48.34375 C-68.63690674 47.51617187 -68.63690674 47.51617187 -67.40966797 46.671875 C-63.58922885 44.02117925 -59.82576449 41.29348157 -56.0625 38.5625 C-54.5546946 37.47134436 -53.04688206 36.38019858 -51.5390625 35.2890625 C-50.02595644 34.19282596 -48.51293568 33.09647167 -47 32 C-35.99835032 24.02676142 -24.96329071 16.10730827 -13.84326172 8.29980469 C-12.15128873 7.1066836 -10.46778712 5.90157279 -8.78515625 4.6953125 C-7.88667969 4.05335938 -6.98820313 3.41140625 -6.0625 2.75 C-5.31097656 2.20859375 -4.55945313 1.6671875 -3.78515625 1.109375 C-2 0 -2 0 0 0 Z " fill="#2C203D" transform="translate(604,454)"/>
<path d="M0 0 C3.96582269 1.91176584 7.51427345 4.30886908 11.125 6.8125 C11.82657227 7.29678467 12.52814453 7.78106934 13.25097656 8.2800293 C19.22686561 12.42393733 25.12140673 16.6761309 31.00439453 20.95043945 C36.62722124 25.02893495 42.30085784 29.02898837 48 33 C54.62055379 37.61598292 61.20763727 42.27374465 67.75 47 C68.82121094 47.7734375 68.82121094 47.7734375 69.9140625 48.5625 C74.64724078 51.99182162 79.33422059 55.47959922 84 59 C82.60486951 63.80952878 80.47738511 67.82527647 77.875 72.0625 C73.16739949 79.89821775 68.71191361 87.86357905 64.3125 95.875 C63.62388591 97.12769942 62.9352464 98.38038486 62.24658203 99.63305664 C61.20153175 101.53448288 60.15668019 103.43601737 59.11230469 105.33781433 C50.19597977 121.57192348 41.18576757 137.75091226 31.96875 153.81640625 C24.46276634 166.90421265 17.06251775 180.05197352 9.75976562 193.25415039 C4.60153059 202.55649118 -0.70359623 211.77586439 -6 221 C-9.82449821 217.27338657 -13.35346875 213.37873132 -16.8125 209.3125 C-17.34020996 208.69455566 -17.86791992 208.07661133 -18.41162109 207.43994141 C-22.02346782 203.1932385 -25.5595012 198.89724052 -28.97265625 194.48828125 C-31.05185865 191.87254357 -31.05185865 191.87254357 -33.74609375 189.10546875 C-34.21321777 188.59967285 -34.6803418 188.09387695 -35.16162109 187.57275391 C-36.48518054 186.14585625 -37.83751432 184.74580616 -39.19140625 183.34765625 C-43.78907343 174.83750339 -38.80690612 162.90680414 -36.6875 153.9375 C-36.33890202 152.43760532 -35.99077287 150.93760161 -35.64306641 149.4375 C-32.20681475 134.67199967 -28.63390908 119.93823072 -25.07925415 105.20089722 C-22.01634675 92.50171465 -19.00645639 79.80146989 -16.23046875 67.03613281 C-13.90484454 56.4110222 -11.39042763 45.83143264 -8.875 35.25 C-8.66244568 34.3528125 -8.44989136 33.455625 -8.230896 32.53125 C-5.64869239 21.64090202 -2.95632026 10.79539015 0 0 Z " fill="#2B2B2B" transform="translate(422,454)"/>
<path d="M0 0 C4.01459609 1.96446277 7.79858321 4.31873146 11.625 6.625 C12.67429687 7.22957031 13.72359375 7.83414062 14.8046875 8.45703125 C15.81015625 9.06160156 16.815625 9.66617187 17.8515625 10.2890625 C18.76760254 10.83256348 19.68364258 11.37606445 20.62744141 11.93603516 C25.51168623 16.18499644 26.65654976 22.80743358 28.26171875 28.875 C28.45723831 29.60315918 28.65275787 30.33131836 28.85420227 31.08154297 C29.26271397 32.61027444 29.66845605 34.13974851 30.0715332 35.66992188 C30.6865384 37.99636247 31.31641771 40.31843728 31.94726562 42.640625 C32.34466088 44.13517476 32.74117515 45.62995912 33.13671875 47.125 C33.3241716 47.81062012 33.51162445 48.49624023 33.70475769 49.20263672 C35.66135119 56.74864711 35.33422913 62.06476293 32.25 69.1875 C31.69116984 70.50921925 31.13520811 71.83215473 30.58203125 73.15625 C30.30955566 73.8059375 30.03708008 74.455625 29.75634766 75.125 C28.68816461 77.77304576 27.80685615 80.46852603 26.9375 83.1875 C25.27001927 88.35041104 23.27933266 93.32067036 21.1484375 98.30859375 C19.93199459 100.92249082 19.93199459 100.92249082 19.453125 103.546875 C16.99292968 107.70010796 12.67890124 108.92806276 8.375 110.8125 C6.45641597 111.68745416 4.5384526 112.5637705 2.62109375 113.44140625 C1.66831543 113.87211426 0.71553711 114.30282227 -0.26611328 114.74658203 C-4.07689877 116.49373087 -7.82179028 118.35860914 -11.5625 120.25 C-12.52965942 120.7298938 -12.52965942 120.7298938 -13.51635742 121.21948242 C-16.50798668 122.70856175 -19.42944036 124.24438878 -22.3359375 125.8984375 C-23.35945312 126.46820313 -24.38296875 127.03796875 -25.4375 127.625 C-26.30246094 128.13289062 -27.16742187 128.64078125 -28.05859375 129.1640625 C-35.22397636 131.2004395 -43.63592436 126.93365479 -50.4375 124.625 C-51.31470703 124.33367187 -52.19191406 124.04234375 -53.09570312 123.7421875 C-58.37594637 121.967839 -63.55699712 120.02749979 -68.70776367 117.90625 C-71.75989581 116.69957043 -74.86175702 115.69280684 -77.9921875 114.7109375 C-78.65476562 114.47632813 -79.31734375 114.24171875 -80 114 C-80.64122803 113.77948975 -81.28245605 113.55897949 -81.94311523 113.33178711 C-84.91006086 111.41075584 -85.56046326 109.21911244 -86.91796875 105.98046875 C-87.17679337 105.37365768 -87.43561798 104.76684662 -87.70228577 104.14164734 C-88.54328999 102.1619899 -89.3654465 100.17509218 -90.1875 98.1875 C-90.76210791 96.82450979 -91.33796166 95.46204415 -91.91503906 94.10009766 C-93.07186898 91.36570596 -94.22190689 88.62861226 -95.36669922 85.88916016 C-96.82408126 82.40822427 -98.31308615 78.94185377 -99.81640625 75.48046875 C-100.43962769 74.04441284 -100.43962769 74.04441284 -101.07543945 72.5793457 C-101.84022749 70.8184733 -102.60565689 69.05787927 -103.37182617 67.29760742 C-103.70802979 66.51619385 -104.0442334 65.73478027 -104.390625 64.9296875 C-104.8242334 63.92784424 -104.8242334 63.92784424 -105.26660156 62.90576172 C-106.01601698 60.95837932 -106.53719083 59.03285252 -107 57 C-106.36312256 56.64397705 -105.72624512 56.2879541 -105.07006836 55.92114258 C-85.65906035 45.0674331 -66.27594825 34.16639084 -46.96331787 23.13833618 C-45.1978015 22.13087835 -43.43122763 21.12529417 -41.66455078 20.11987305 C-36.23502139 17.02524695 -30.82176874 13.90864298 -25.45384216 10.70806885 C-23.06524055 9.28427837 -20.67092402 7.87024191 -18.27651978 6.45623779 C-16.59821246 5.45872591 -14.92922786 4.44558153 -13.26049805 3.43212891 C-12.24769775 2.8344873 -11.23489746 2.2368457 -10.19140625 1.62109375 C-8.86411499 0.82336548 -8.86411499 0.82336548 -7.51000977 0.00952148 C-4.42168737 -1.23259631 -3.13211493 -1.05397477 0 0 Z " fill="#353453" transform="translate(626,284)"/>
<path d="M0 0 C3.12043118 0.91474569 5.65370911 2.22461616 8.49023438 3.81689453 C9.60479004 4.43894775 10.7193457 5.06100098 11.86767578 5.7019043 C13.05971673 6.37669454 14.25160805 7.05174917 15.44335938 7.72705078 C16.67539372 8.41877614 17.90765455 9.11009825 19.14013672 9.80102539 C26.23362113 13.78718077 33.27910207 17.85006079 40.26953125 22.0144043 C46.43337761 25.6736265 52.68377161 29.17220059 58.94335938 32.66455078 C67.02482167 37.17346589 75.09457268 41.70050776 83.13085938 46.28955078 C83.95166992 46.75731934 84.77248047 47.22508789 85.61816406 47.70703125 C91.3571681 50.99032463 97.03513298 54.36909585 102.69335938 57.78955078 C102.12409223 62.06122415 101.10182734 65.57020421 99.33007812 69.49267578 C98.85505859 70.55615234 98.38003906 71.61962891 97.890625 72.71533203 C97.39240234 73.81232422 96.89417969 74.90931641 96.38085938 76.03955078 C93.31934509 82.84381697 90.2844749 89.6350285 87.56982422 96.58642578 C86.06359241 100.3725639 84.41529459 104.09688363 82.69335938 107.78955078 C82.24669922 109.27841797 82.24669922 109.27841797 81.79101562 110.79736328 C78.44069412 115.57640662 73.63407195 116.32166746 68.19335938 117.91455078 C66.09915509 118.5615196 64.00540198 119.20995074 61.91210938 119.85986328 C60.35882935 120.3337146 60.35882935 120.3337146 58.77416992 120.81713867 C52.6846741 122.73919762 46.71760941 124.99561695 40.76757812 127.30908203 C39.09115234 127.94910156 39.09115234 127.94910156 37.38085938 128.60205078 C35.68509766 129.26140625 35.68509766 129.26140625 33.95507812 129.93408203 C26.71245385 131.83364457 20.93819301 128.22580137 14.58789062 125.05517578 C13.14635872 124.34261627 13.14635872 124.34261627 11.67570496 123.61566162 C9.65063576 122.61104279 7.62766777 121.60217869 5.60668945 120.58935547 C2.51377458 119.04350683 -0.59012241 117.52149804 -3.6953125 116.00048828 C-5.66412597 115.0201511 -7.63224943 114.03842668 -9.59960938 113.05517578 C-10.52774948 112.60289612 -11.45588959 112.15061646 -12.41215515 111.68463135 C-20.29423369 107.68693703 -20.29423369 107.68693703 -22.30664062 102.78955078 C-22.79712891 101.64446045 -23.28761719 100.49937012 -23.79296875 99.31958008 C-24.31255828 98.00278847 -24.827299 96.68407616 -25.33789062 95.36376953 C-25.61507935 94.65734818 -25.89226807 93.95092682 -26.17785645 93.22309875 C-27.05832924 90.97603685 -27.93250569 88.72658466 -28.80664062 86.47705078 C-29.39348103 84.97754554 -29.980717 83.47819504 -30.56835938 81.97900391 C-32.15690652 77.91932441 -33.74059738 73.85796836 -35.30664062 69.78955078 C-35.58653336 69.07084305 -35.86642609 68.35213531 -36.15480042 67.61164856 C-39.69041107 58.41189253 -37.39917515 51.56684753 -34.41992188 42.43408203 C-32.94390256 37.6020609 -31.81394466 32.71567373 -30.7019043 27.78930664 C-30.39461625 26.43333974 -30.07621934 25.07983654 -29.74609375 23.72924805 C-29.3279673 21.88368436 -29.04388149 20.00926246 -28.76757812 18.13720703 C-26.56487407 13.08983438 -22.80962561 11.57090322 -18.05664062 9.10205078 C-16.36306004 8.18308354 -14.67033207 7.26254302 -12.97851562 6.34033203 C-12.17091797 5.91187988 -11.36332031 5.48342773 -10.53125 5.04199219 C-8.56507469 3.93504757 -6.81441068 2.74157127 -5.00976562 1.39501953 C-2.30664062 -0.21044922 -2.30664062 -0.21044922 0 0 Z " fill="#353535" transform="translate(403.306640625,283.21044921875)"/>
<path d="M0 0 C0.6496875 0.72832031 1.299375 1.45664062 1.96875 2.20703125 C5.3500126 5.57527078 9.27333208 7.54805401 13.5 9.6875 C14.73556641 10.32606934 14.73556641 10.32606934 15.99609375 10.97753906 C23.15325711 14.64491262 30.40664391 18.11053751 37.69628906 21.50585938 C42.37048449 23.69288435 46.82864827 26.01369371 51.25 28.6875 C55.34866898 30.96597268 58.1526378 31.60697244 62.76953125 30.68359375 C66.02538642 29.68573971 69.13845654 28.45053966 72.265625 27.10546875 C75.30231751 25.87777735 78.36042918 24.9322904 81.5 24 C86.29053587 22.56396115 90.893907 20.91868535 95.515625 19.015625 C98.2867738 17.88276543 101.07244157 16.80281296 103.875 15.75 C104.75929688 15.41484375 105.64359375 15.0796875 106.5546875 14.734375 C109 14 109 14 113 14 C113.43231934 14.81452637 113.86463867 15.62905273 114.31005859 16.46826172 C116.32994682 20.27144568 118.35198714 24.07347749 120.375 27.875 C120.73770996 28.55695435 121.10041992 29.23890869 121.47412109 29.94152832 C126.29596077 39.00254195 131.1587943 48.03423975 136.25537109 56.94482422 C139 61.7913146 139 61.7913146 139 64 C139.66 64 140.32 64 141 64 C141.38937744 62.72092773 141.38937744 62.72092773 141.78662109 61.41601562 C143.05507187 57.84495663 144.62457108 54.68312377 146.4140625 51.34375 C146.91406265 50.40746765 146.91406265 50.40746765 147.42416382 49.45227051 C148.12969012 48.13333861 148.83746569 46.8156077 149.54736328 45.49902344 C150.60566 43.53587583 151.65697164 41.56912591 152.70703125 39.6015625 C157.32200942 30.98044234 162.10566184 22.46534974 167 14 C173.4071668 15.15354225 179.50303003 17.31699472 185.6875 19.3125 C187.53118164 19.8993457 187.53118164 19.8993457 189.41210938 20.49804688 C196.39708017 22.74441348 203.22281971 25.1930393 210 28 C216.35137655 30.47623446 221.08137956 32.0835316 227.81030273 29.2331543 C229.86244662 28.18389958 231.86857036 27.07175477 233.875 25.9375 C240.32940779 22.39282782 246.85895093 19.07088593 253.51171875 15.91796875 C254.25448059 15.56465988 254.99724243 15.21135101 255.76251221 14.84733582 C258.78049299 13.41311742 261.7988567 11.9803884 264.82830811 10.57052612 C266.97538783 9.57070245 269.11497104 8.5561669 271.25390625 7.5390625 C271.9051799 7.24142502 272.55645355 6.94378754 273.22746277 6.63713074 C275.97767134 5.31631493 277.75505159 4.38271348 279.42163086 1.77880859 C279.70792358 0.89829834 279.70792358 0.89829834 280 0 C280.68359375 1.66015625 281.3671875 3.3203125 282.05078125 4.98046875 C283.20208748 7.42995566 284.58039751 9.69761949 286 12 C285.19820312 12.49886719 284.39640625 12.99773437 283.5703125 13.51171875 C275.87061951 18.35485099 268.44329241 23.49259333 261.09375 28.85058594 C255.47947239 32.94119005 249.82085126 36.96129782 244.125 40.9375 C243.29419922 41.51773926 242.46339844 42.09797852 241.60742188 42.69580078 C238.22580421 45.05575211 234.84235509 47.4130708 231.45898438 49.77050781 C221.77667408 56.51980109 212.13447045 63.3150702 202.57983398 70.24414062 C197.55630863 73.88471379 192.50867348 77.48860783 187.4375 81.0625 C186.38888794 81.80161621 186.38888794 81.80161621 185.3190918 82.55566406 C181.82397328 85.0169127 178.32527801 87.47299236 174.82421875 89.92578125 C173.42428857 90.90858273 172.02454921 91.89165607 170.625 92.875 C169.59379028 93.59792236 169.59379028 93.59792236 168.54174805 94.33544922 C164.60853085 97.10793314 160.72795768 99.93843325 156.8828125 102.83203125 C156.0273584 103.47350098 155.1719043 104.1149707 154.29052734 104.77587891 C152.63135489 106.02432406 150.97774765 107.28020952 149.33056641 108.54443359 C148.57694824 109.1111377 147.82333008 109.6778418 147.046875 110.26171875 C146.38526367 110.76662842 145.72365234 111.27153809 145.04199219 111.79174805 C142.60892792 113.23139834 140.82426475 113.80538494 138 114 C135.97387695 113.03466797 135.97387695 113.03466797 133.98828125 111.4921875 C133.24006104 110.92435547 132.49184082 110.35652344 131.72094727 109.77148438 C130.92615967 109.14564453 130.13137207 108.51980469 129.3125 107.875 C127.59964893 106.56940599 125.88609087 105.26473904 124.171875 103.9609375 C123.30626953 103.29545898 122.44066406 102.62998047 121.54882812 101.94433594 C117.76901019 99.06095758 113.92225951 96.27498206 110.0625 93.5 C109.3307959 92.97204834 108.5990918 92.44409668 107.84521484 91.90014648 C99.7543306 86.07629455 91.57414559 80.3802465 83.39892578 74.67578125 C73.11293261 67.49045079 62.89380248 60.21746185 52.73217773 52.85742188 C45.57229787 47.67724299 38.3553651 42.580284 31.12646484 37.49707031 C28.95331304 35.96713152 26.78289793 34.43338476 24.61328125 32.8984375 C17.02052172 27.52794905 9.41089473 22.1877622 1.734375 16.9375 C-0.92880669 15.05044554 -3.47353637 13.06543012 -6 11 C-5.01 10.34 -4.02 9.68 -3 9 C-1.99194445 6.82102508 -1.99194445 6.82102508 -1.3125 4.375 C-1.06113281 3.55773437 -0.80976563 2.74046875 -0.55078125 1.8984375 C-0.36902344 1.27195312 -0.18726563 0.64546875 0 0 Z " fill="#282828" transform="translate(373,392)"/>
<path d="M0 0 C0.96939514 -0.01286545 1.93879028 -0.0257309 2.93756104 -0.03898621 C3.98997986 -0.04279297 5.04239868 -0.04659973 6.12670898 -0.05052185 C7.2446283 -0.06205795 8.36254761 -0.07359406 9.51434326 -0.08547974 C13.21717746 -0.11981044 16.91984418 -0.13830448 20.62280273 -0.15379333 C22.52937149 -0.16414769 22.52937149 -0.16414769 24.47445679 -0.17471123 C30.52131726 -0.20687908 36.56808353 -0.23132187 42.61501026 -0.24352509 C49.54061084 -0.2576902 56.46517661 -0.30125961 63.39043522 -0.37102658 C69.4287056 -0.42970403 75.46655624 -0.4486593 81.50509644 -0.45440483 C84.05002182 -0.46222739 86.59494245 -0.48165078 89.13967896 -0.51362801 C105.47304584 -0.70514633 118.94118749 0.99063463 134.06030273 7.28761292 C135.39269707 7.81962482 136.72573693 8.35002434 138.05957031 8.87841797 C141.44908469 10.2436877 144.79170103 11.65331206 148.06030273 13.28761292 C146.53735653 17.23664785 144.19402995 18.96076779 140.81030273 21.41261292 C140.28235107 21.80094299 139.75439941 22.18927307 139.21044922 22.58937073 C136.37992283 24.66042703 133.51295832 26.66954771 130.61108398 28.63917542 C119.70134399 36.1012354 110.61283016 44.92874602 102.06420898 54.99855042 C99.1424664 58.33605754 96.09607742 61.5539641 93.06030273 64.78761292 C88.92386985 69.19823405 84.83394361 73.62631291 80.88842773 78.20948792 C77.86392449 81.64759844 74.73802879 84.99240291 71.62036133 88.34596252 C67.66072285 92.61138623 63.803438 96.95796207 59.99780273 101.36183167 C58.09983459 103.24832016 56.51299659 104.26383222 54.06030273 105.28761292 C49.54914796 100.8819137 45.21829154 96.40022833 41.10717773 91.61964417 C38.47863692 88.6249135 35.7710669 85.7078263 33.06030273 82.78761292 C29.88793931 79.36805862 26.72769271 75.94919822 23.68530273 72.41261292 C19.73848524 67.84970683 15.59446344 63.47116795 11.46630859 59.07301331 C8.14700406 55.53433072 4.85989825 51.9721695 1.61547852 48.36476135 C-6.97936423 38.84630287 -16.24926075 31.4832144 -26.75610352 24.21730042 C-29.67581286 22.18195585 -32.58636413 20.13573837 -35.46704102 18.04542542 C-36.13340576 17.56476624 -36.79977051 17.08410706 -37.48632812 16.58888245 C-38.20574585 15.94475403 -38.20574585 15.94475403 -38.93969727 15.28761292 C-38.93969727 14.62761292 -38.93969727 13.96761292 -38.93969727 13.28761292 C-37.85172852 12.91249573 -36.76375977 12.53737854 -35.64282227 12.15089417 C-27.81628301 9.43250239 -20.07486603 6.63125667 -12.45532227 3.36573792 C-11.62516602 3.00995667 -10.79500977 2.65417542 -9.93969727 2.28761292 C-9.16469376 1.9413086 -8.38969025 1.59500429 -7.59120178 1.23820591 C-4.86991554 0.26259541 -2.8760127 0.02486704 0 0 Z " fill="#555656" transform="translate(457.939697265625,227.71238708496094)"/>
<path d="M0 0 C0.66 0 1.32 0 2 0 C2.36125977 0.64735107 2.72251953 1.29470215 3.09472656 1.96166992 C9.30591059 13.0862811 15.52355385 24.20472309 21.875 35.25 C26.63226914 43.53387787 31.2698048 51.88103276 35.875 60.25 C45.96944996 78.58908927 56.12967893 96.87781929 66.72192383 114.93554688 C71.1607704 122.51954368 75.51049416 130.15024294 79.8125 137.8125 C80.41771484 138.88693359 81.02292969 139.96136719 81.64648438 141.06835938 C82.20271484 142.06287109 82.75894531 143.05738281 83.33203125 144.08203125 C84.07030151 145.40037964 84.07030151 145.40037964 84.82348633 146.74536133 C86 149 86 149 87 152 C82.26846695 150.51769475 77.77483257 148.65034132 73.26171875 146.61328125 C72.14251541 146.11209526 72.14251541 146.11209526 71.0007019 145.6007843 C68.56167102 144.50755409 66.12456028 143.41011525 63.6875 142.3125 C61.9928332 141.55175116 60.29808945 140.79117373 58.60327148 140.03076172 C45.85763287 134.30713352 33.13261975 128.53788936 20.42260742 122.7355957 C19.76994904 122.43791794 19.11729065 122.14024017 18.44485474 121.83354187 C16.70323054 121.03898401 14.96206904 120.24341213 13.22094727 119.44775391 C12.15803467 118.96999512 11.09512207 118.49223633 10 118 C8.85394287 117.4229834 7.70788574 116.8459668 6.52709961 116.25146484 C-0.01622194 113.92980178 -5.18407673 116.21789465 -11.1796875 119.0703125 C-11.85754807 119.38351944 -12.53540863 119.69672638 -13.23381042 120.01942444 C-15.45153371 121.04625441 -17.66314942 122.0855886 -19.875 123.125 C-21.42459252 123.8451396 -22.97464869 124.56428228 -24.52514648 125.2824707 C-26.92611034 126.3949048 -29.32667068 127.50814562 -31.72563171 128.62489319 C-37.23413247 131.18874199 -42.75708904 133.71850265 -48.29296875 136.22265625 C-49.40747406 136.72699188 -49.40747406 136.72699188 -50.54449463 137.24151611 C-53.40875513 138.53695432 -56.27342543 139.8314782 -59.13885498 141.12432861 C-66.19225319 144.30890353 -73.20573532 147.51599144 -80.04467773 151.14575195 C-82 152 -82 152 -85 152 C-83.22933006 146.94386734 -80.49471092 142.48553829 -77.8125 137.875 C-73.04282502 129.60673783 -68.36752267 121.29163049 -63.75 112.9375 C-58.57304964 103.58185427 -53.32209439 94.27369375 -48 85 C-40.82627392 72.49717058 -33.81169632 59.90997916 -26.82910156 47.29931641 C-21.58838173 37.84615465 -16.30616568 28.41655352 -11 19 C-10.45730469 18.03304199 -9.91460937 17.06608398 -9.35546875 16.06982422 C-7.82844558 13.35434232 -6.29111492 10.64500317 -4.75 7.9375 C-4.0688916 6.72223633 -4.0688916 6.72223633 -3.37402344 5.48242188 C-2.30646904 3.6210027 -1.16134785 1.80439046 0 0 Z " fill="#292F3C" transform="translate(512,522)"/>
<path d="M0 0 C0.96873047 0.45600586 1.93746094 0.91201172 2.93554688 1.38183594 C3.98548828 1.88360352 5.03542969 2.38537109 6.1171875 2.90234375 C8.44156401 3.99462594 10.76715693 5.08432214 13.09375 6.171875 C13.71368835 6.46202484 14.33362671 6.75217468 14.97235107 7.05111694 C23.0960713 10.84086504 31.29586202 14.46059558 39.4921875 18.08984375 C40.97021737 18.74486735 42.44824476 19.39989654 43.92626953 20.05493164 C46.80076282 21.32841513 49.67567518 22.60094755 52.55078125 23.87304688 C60.0354636 27.18581479 67.51342061 30.51374901 74.9921875 33.83984375 C73.71066022 37.6844256 72.54898226 37.89904098 69.015625 39.73828125 C67.4375708 40.57129761 67.4375708 40.57129761 65.82763672 41.42114258 C64.68568848 42.01306396 63.54374023 42.60498535 62.3671875 43.21484375 C59.97926855 44.47184568 57.59518721 45.73605532 55.2109375 47 C54.30225418 47.48006752 54.30225418 47.48006752 53.37521362 47.96983337 C47.47927543 51.09189262 41.66536328 54.35250103 35.8671875 57.65234375 C34.45010498 58.4575647 34.45010498 58.4575647 33.00439453 59.27905273 C31.18251956 60.31517427 29.36105073 61.35201036 27.54003906 62.38964844 C23.78017183 64.52970319 20.01253208 66.65581403 16.2421875 68.77734375 C15.6035376 69.13691162 14.9648877 69.49647949 14.30688477 69.86694336 C9.66961394 72.47230985 5.00720154 75.02860784 0.32421875 77.55078125 C-2.08471776 78.83086656 -2.08471776 78.83086656 -4.49609375 80.56640625 C-7.63572253 82.15819316 -8.66898438 81.76533161 -12.0078125 80.83984375 C-14.41357422 79.73925781 -14.41357422 79.73925781 -16.9375 78.35546875 C-18.3596582 77.58106445 -18.3596582 77.58106445 -19.81054688 76.79101562 C-20.82439453 76.22962891 -21.83824219 75.66824219 -22.8828125 75.08984375 C-23.94564453 74.50783203 -25.00847656 73.92582031 -26.10351562 73.32617188 C-34.21987479 68.86721406 -42.28246796 64.31432627 -50.33032227 59.7331543 C-58.41096766 55.14406877 -66.57012231 50.70847988 -74.765625 46.328125 C-79.45124172 43.8135755 -84.10720976 41.25469042 -88.70703125 38.5859375 C-89.94779419 37.86748657 -89.94779419 37.86748657 -91.21362305 37.13452148 C-91.80570557 36.70727783 -92.39778809 36.28003418 -93.0078125 35.83984375 C-93.0078125 35.17984375 -93.0078125 34.51984375 -93.0078125 33.83984375 C-91.96890869 33.37312256 -90.93000488 32.90640137 -89.85961914 32.42553711 C-69.40950553 23.23705173 -48.96726094 14.03231134 -28.5688324 4.72953796 C-26.7730657 3.91250493 -24.97471946 3.10114871 -23.17626953 2.29003906 C-21.21095974 1.3905214 -19.25617889 0.46709902 -17.31982422 -0.49316406 C-16.54525879 -0.87053711 -15.77069336 -1.24791016 -14.97265625 -1.63671875 C-14.33835693 -1.95979004 -13.70405762 -2.28286133 -13.05053711 -2.61572266 C-8.42640986 -3.84816006 -4.1506968 -1.98172973 0 0 Z " fill="#14142D" transform="translate(522.0078125,649.16015625)"/>
<path d="M0 0 C5.27944147 1.59159632 9.54275141 3.98671674 14.21875 6.85546875 C17.73822691 8.30379281 19.36383823 8.06131625 23 7 C25.2892228 5.88999313 27.53997059 4.69782783 29.75 3.4375 C35.80885312 0 35.80885312 0 38 0 C38.75286553 2.66588451 39.50227394 5.3326731 40.25 8 C40.45496094 8.72445312 40.65992188 9.44890625 40.87109375 10.1953125 C42.48353519 15.96101218 43.95466397 21.75857986 45.39750671 27.56852722 C47.22079074 34.90768572 49.09772315 42.23273882 50.98217773 49.55639648 C51.56657978 51.82836085 52.14953598 54.10069312 52.73242188 56.37304688 C53.11448523 57.85940022 53.49664501 59.34572879 53.87890625 60.83203125 C54.06192291 61.54561798 54.24493958 62.25920471 54.4335022 62.99441528 C55.70411335 67.92474294 57.05858802 72.82611087 58.49975586 77.7097168 C59.05930436 80.27151496 59.2809365 82.38794007 59 85 C56.74905125 86.9373683 54.68167118 88.43614562 52.1875 90 C50.72876757 90.95642283 49.27045274 91.9134828 47.8125 92.87109375 C47.03519531 93.37366699 46.25789062 93.87624023 45.45703125 94.39404297 C41.14997048 97.20921047 36.92506779 100.14425576 32.6875 103.0625 C31.08775974 104.15831183 29.48753396 105.25341536 27.88671875 106.34765625 C27.20826904 106.81179932 26.52981934 107.27594238 25.83081055 107.75415039 C21.05679307 111.00282504 21.05679307 111.00282504 18.72265625 110.88671875 C15.22121131 109.74636294 12.43289496 107.8950011 9.4375 105.8125 C8.80634277 105.38267822 8.17518555 104.95285645 7.52490234 104.51000977 C5.34235111 103.01738752 3.17056489 101.50999766 1 100 C0.13036621 99.39704102 -0.73926758 98.79408203 -1.63525391 98.17285156 C-6.11635931 95.06280106 -10.59072227 91.94320194 -15.0546875 88.80859375 C-15.79187012 88.29095459 -16.52905273 87.77331543 -17.28857422 87.23999023 C-19 86 -19 86 -20 85 C-20.45701008 78.87903648 -19.0888246 73.55618391 -17.515625 67.66796875 C-17.25875916 66.6773494 -17.00189331 65.68673004 -16.73724365 64.66609192 C-15.91612549 61.50442083 -15.08372956 58.34586659 -14.25 55.1875 C-13.16744883 51.05713608 -12.09000034 46.92546646 -11.015625 42.79296875 C-10.75348206 41.78735901 -10.49133911 40.78174927 -10.22125244 39.7456665 C-8.42714335 32.80817152 -6.78015757 25.85079707 -5.30181885 18.8391571 C-3.93726688 12.42153825 -2.06760813 6.22482023 0 0 Z " fill="#1C152E" transform="translate(494,732)"/>
<path d="M0 0 C5.76663884 4.07056859 10.8729044 8.58630093 16.00854492 13.40332031 C19.40681947 16.57445706 22.87050796 19.59110784 26.5 22.5 C31.90436782 26.83927344 36.94955123 31.50396415 42.015625 36.2265625 C44.29480713 38.35105543 46.59365827 40.44663438 48.9375 42.5 C49.53175781 43.03109375 50.12601563 43.5621875 50.73828125 44.109375 C52.67229577 45.72606417 54.63741102 47.21278865 56.66796875 48.703125 C66.57668842 56.18843679 66.57668842 56.18843679 67.62890625 60.69140625 C67.12172211 63.70309258 66.1874008 66.18500932 65 69 C64.20106634 71.45598125 63.40984291 73.91447963 62.625 76.375 C62.18569842 77.65742206 61.74298676 78.93868105 61.296875 80.21875 C60.08467833 83.75310655 58.96083287 87.3001041 57.875 90.875 C54.15402852 103.08397068 49.74124794 114.76971849 44.5625 126.4375 C44.08490234 127.51837891 43.60730469 128.59925781 43.11523438 129.71289062 C40.41872872 135.8123938 37.71096248 141.9069097 35 148 C34.34 147.67 33.68 147.34 33 147 C32.36499023 145.04272461 32.36499023 145.04272461 31.80859375 142.40234375 C31.59082275 141.39381348 31.37305176 140.3852832 31.14868164 139.34619141 C30.9139917 138.22132324 30.67930176 137.09645508 30.4375 135.9375 C29.90452145 133.46465486 29.37060849 130.992011 28.8359375 128.51953125 C28.62098381 127.51759735 28.62098381 127.51759735 28.40168762 126.49542236 C26.51238853 117.69258783 24.5375522 108.9089187 22.5625 100.125 C22.36963409 99.26575928 22.17676819 98.40651855 21.97805786 97.52124023 C19.27332957 85.48091876 16.46402689 73.47292578 13.53027344 61.48608398 C11.19509801 51.91227249 9.01332259 42.30818218 6.86685181 32.69073486 C4.93124686 24.01942976 2.91165233 15.38734494 0.62890625 6.80078125 C0 4 0 4 0 0 Z " fill="#464545" transform="translate(618,470)"/>
<path d="M0 0 C0.99 0.495 0.99 0.495 2 1 C1.68361572 2.28741089 1.68361572 2.28741089 1.36083984 3.60083008 C-2.5963647 19.73347052 -6.50968472 35.86501986 -10.00830078 52.10473633 C-11.04930953 56.90045879 -12.14907691 61.65162253 -13.46875 66.37890625 C-15.28258117 72.88705121 -16.72741095 79.46751008 -18.1875 86.0625 C-18.79851296 88.79868769 -19.41246866 91.53420907 -20.02734375 94.26953125 C-20.18578766 94.97459808 -20.34423157 95.67966492 -20.50747681 96.40609741 C-22.20885034 103.95798341 -23.96054161 111.49792697 -25.72988892 119.03414917 C-26.07209895 120.49208076 -26.41357042 121.95018593 -26.75424194 123.40847778 C-28.68068638 131.65026086 -30.69426929 139.85480233 -33 148 C-35.56758115 145.43241885 -36.67062494 142.5104516 -38.08203125 139.2265625 C-38.37808762 138.54757904 -38.67414398 137.86859558 -38.97917175 137.16903687 C-39.92804328 134.98958565 -40.87023546 132.80731455 -41.8125 130.625 C-42.43513463 129.193831 -43.05817732 127.76283945 -43.68164062 126.33203125 C-45.19150191 122.86182801 -46.68946434 119.38667682 -48.18045044 115.9083252 C-48.93606511 114.14887271 -49.69808547 112.39217488 -50.46069336 110.63574219 C-53.08160799 104.51030428 -55.21260951 98.4325748 -56.9375 92 C-57.43587979 90.18835559 -57.93592716 88.37716923 -58.4375 86.56640625 C-58.69015625 85.65262207 -58.9428125 84.73883789 -59.203125 83.79736328 C-60.01032868 80.96374202 -60.86972358 78.15156738 -61.75 75.33984375 C-62.03238525 74.43298828 -62.31477051 73.52613281 -62.60571289 72.59179688 C-63.14917707 70.85756073 -63.70013436 69.12565017 -64.25952148 67.39648438 C-64.50259033 66.61466797 -64.74565918 65.83285156 -64.99609375 65.02734375 C-65.21450928 64.34406006 -65.4329248 63.66077637 -65.65795898 62.95678711 C-66.06435147 60.63185079 -65.8025466 59.2095192 -65 57 C-63.1015625 54.95703125 -63.1015625 54.95703125 -60.625 52.8125 C-59.71621094 52.02101563 -58.80742187 51.22953125 -57.87109375 50.4140625 C-55.16705074 48.14045899 -52.43587398 45.9071853 -49.6875 43.6875 C-44.87334412 39.79679292 -40.35075666 35.66999534 -35.83666992 31.44213867 C-32.48935757 28.32475274 -29.07013212 25.36440833 -25.5 22.5 C-20.6615176 18.61648124 -16.11568406 14.48719443 -11.58325195 10.25683594 C-7.80567515 6.73178473 -3.96259797 3.31752388 0 0 Z " fill="#130F29" transform="translate(407,470)"/>
<path d="M0 0 C3 1 3 1 4.15380859 2.97436523 C4.52328613 3.84778564 4.89276367 4.72120605 5.2734375 5.62109375 C5.70495117 6.62124512 6.13646484 7.62139648 6.58105469 8.65185547 C7.04930664 9.75674316 7.51755859 10.86163086 8 12 C8.77877536 13.76672593 9.55765127 15.53341041 10.34004211 17.29853821 C13.65581357 24.78949362 16.91568841 32.30537555 20.18115234 39.81835938 C21.36293166 42.53732497 22.54814119 45.25474551 23.73681641 47.97070312 C25.3154492 51.57959261 26.87754572 55.19549423 28.4375 58.8125 C28.91590332 59.90248291 29.39430664 60.99246582 29.88720703 62.11547852 C30.31501465 63.11506592 30.74282227 64.11465332 31.18359375 65.14453125 C31.56056396 66.01440674 31.93753418 66.88428223 32.32592773 67.78051758 C33 70 33 70 32 73 C30.41210938 74.34350586 30.41210938 74.34350586 28.34375 75.71484375 C27.19217407 76.4886438 27.19217407 76.4886438 26.01733398 77.27807617 C25.18661377 77.82568604 24.35589355 78.3732959 23.5 78.9375 C21.77139876 80.09786167 20.04355071 81.25934608 18.31640625 82.421875 C17.43484863 83.01291016 16.55329102 83.60394531 15.64501953 84.21289062 C11.53967904 86.98666692 7.48491607 89.83011224 3.4375 92.6875 C2.71820312 93.1920874 1.99890625 93.6966748 1.2578125 94.21655273 C0.26201172 94.91953491 0.26201172 94.91953491 -0.75390625 95.63671875 C-1.33470947 96.04623779 -1.9155127 96.45575684 -2.51391602 96.87768555 C-4.15670951 98.06462676 -4.15670951 98.06462676 -6 100 C-6.99 100 -7.98 100 -9 100 C-9.15176193 99.38851105 -9.30352386 98.77702209 -9.45988464 98.14700317 C-11.06345345 91.68791526 -12.67054661 85.2297111 -14.27954102 78.77197266 C-14.87676964 76.37310165 -15.47314787 73.97401874 -16.06860352 71.57470703 C-19.20828919 58.9261836 -22.38120602 46.30010864 -25.95043945 33.76513672 C-26.46997192 31.90139404 -26.46997192 31.90139404 -27 30 C-27.19153656 29.32390686 -27.38307312 28.64781372 -27.58041382 27.95123291 C-28.68287279 23.86622166 -29.21137893 20.22757868 -29 16 C-28.3702124 15.65743164 -27.7404248 15.31486328 -27.09155273 14.96191406 C-24.20645659 13.39203167 -21.3219743 11.82102464 -18.4375 10.25 C-17.44685547 9.71117187 -16.45621094 9.17234375 -15.43554688 8.6171875 C-14.46552734 8.08867188 -13.49550781 7.56015625 -12.49609375 7.015625 C-11.54976074 6.50193359 -10.60342773 5.98824219 -9.62841797 5.45898438 C-7.37199279 4.20648606 -5.17375093 2.89266401 -2.97265625 1.546875 C-1.99167969 1.03640625 -1.01070312 0.5259375 0 0 Z " fill="#343334" transform="translate(570,710)"/>
<path d="M0 0 C4.34837687 1.32095412 8.10451052 3.01802143 12.0546875 5.2578125 C13.16328125 5.88300781 14.271875 6.50820313 15.4140625 7.15234375 C16.55617188 7.80332031 17.69828125 8.45429687 18.875 9.125 C20.05181177 9.79084477 21.22889276 10.45621396 22.40625 11.12109375 C25.27351326 12.74274265 28.13795084 14.36917199 31 16 C30.546369 21.72575187 29.91700018 27.05703928 28.1875 32.5625 C26.67147197 37.56144877 25.35007409 42.566671 24.1875 47.66015625 C22.05217913 56.86795607 19.77833855 66.0390524 17.48071289 75.20751953 C16.80111321 77.92045565 16.12409531 80.63402789 15.44726562 83.34765625 C15.01317209 85.08337117 14.57893299 86.81904969 14.14453125 88.5546875 C13.94350296 89.36082489 13.74247467 90.16696228 13.53535461 90.99752808 C12.77269188 94.0353384 11.99087295 97.02738114 11 100 C7.56412032 98.7342682 4.71681123 97.28237096 1.734375 95.1640625 C0.93418945 94.59961426 0.13400391 94.03516602 -0.69042969 93.45361328 C-1.95741699 92.54844971 -1.95741699 92.54844971 -3.25 91.625 C-4.12301758 91.00737793 -4.99603516 90.38975586 -5.89550781 89.75341797 C-7.7026524 88.47442005 -9.50830528 87.19331198 -11.3125 85.91015625 C-14.69374095 83.50691959 -18.08450867 81.11735341 -21.47558594 78.72802734 C-24.65277397 76.48871684 -27.8264703 74.24449121 -31 72 C-28.46547846 63.78527415 -25.07119552 55.98735955 -21.625 48.125 C-21.05435574 46.81394643 -20.48404131 45.50274926 -19.9140625 44.19140625 C-17.44639756 38.52461666 -14.95383953 32.87087285 -12.3828125 27.25 C-9.47583121 20.89237886 -6.76145873 14.45554301 -4.04296875 8.015625 C-3.66269531 7.12101563 -3.28242188 6.22640625 -2.890625 5.3046875 C-2.55063477 4.50015137 -2.21064453 3.69561523 -1.86035156 2.86669922 C-1 1 -1 1 0 0 Z " fill="#212121" transform="translate(454,710)"/>
<path d="M0 0 C2.64398662 1.26575751 5.04867577 2.63675287 7.44140625 4.328125 C8.0974585 4.79081787 8.75351074 5.25351074 9.42944336 5.73022461 C10.4853064 6.48251343 10.4853064 6.48251343 11.5625 7.25 C12.67927124 8.04192749 12.67927124 8.04192749 13.81860352 8.84985352 C20.21079712 13.40030756 26.53053348 18.04661499 32.83789062 22.71362305 C40.43054534 28.33024466 48.08361697 33.86053184 55.74853516 39.37792969 C58.04634996 41.03339288 60.34188876 42.69196457 62.63671875 44.3515625 C63.40089111 44.90392578 64.16506348 45.45628906 64.95239258 46.02539062 C66.47524721 47.12703703 67.99723121 48.22988804 69.51831055 49.33398438 C72.92575632 51.80287691 76.34188795 54.24909209 79.8203125 56.6171875 C90.2846257 63.78159828 98.87114328 72.16071932 107.1015625 81.81640625 C109.63169415 84.72657825 112.25254859 87.54809595 114.875 90.375 C119.35017841 95.20125507 123.77867496 100.06473431 128.16015625 104.9765625 C129.73017028 106.7032446 131.3321295 108.36850051 133 110 C132.67 110.66 132.34 111.32 132 112 C119.67015232 105.05136879 107.35376749 98.07917096 95.0625 91.0625 C94.47189789 90.72541016 93.88129578 90.38832031 93.27279663 90.04101562 C85.17096302 85.4141505 77.10643005 80.72691514 69.0625 76 C61.44357879 71.52494829 53.76523011 67.17953479 46.01220703 62.94262695 C43.5101574 61.57372701 41.0217677 60.18386022 38.54248047 58.77416992 C33.13361208 55.71312343 27.8259374 52.83315793 21.99609375 50.62109375 C15.7756654 48.0496131 10.02315771 45.61739071 7.16729736 39.09954834 C2.85477141 27.01268294 0 12.84420865 0 0 Z " fill="#59595A" transform="translate(353,207)"/>
<path d="M0 0 C0.2330904 5.43600102 -0.87260742 10.04505506 -2.32763672 15.25634766 C-3.38229231 19.15795864 -4.14789432 22.88919856 -4.5234375 26.91796875 C-5.81562608 38.79162929 -5.81562608 38.79162929 -9.60009766 42.61767578 C-13.85795124 45.69273209 -18.60976851 47.7344274 -23.40869141 49.81787109 C-27.81681927 51.82881467 -31.94708035 54.30486173 -36.125 56.75 C-37.89789031 57.76657988 -39.67133922 58.78218613 -41.4453125 59.796875 C-48.33500897 63.76121372 -55.19578288 67.7749492 -62.05712891 71.78808594 C-69.36342179 76.05743284 -76.70091655 80.26873602 -84.05541992 84.4543457 C-90.83513776 88.31903495 -97.57724571 92.24591757 -104.3125 96.1875 C-113.48804763 101.55657847 -122.70820286 106.83485394 -132 112 C-132 109 -132 109 -130.27734375 107.01953125 C-129.50519531 106.29121094 -128.73304688 105.56289063 -127.9375 104.8125 C-125.07016291 102.03866304 -122.28506514 99.27834946 -119.6875 96.25 C-116.14056088 92.12280125 -112.46101897 88.1242147 -108.75683594 84.13867188 C-106.12843831 81.31009288 -103.51690521 78.47025941 -100.9453125 75.58984375 C-91.91734568 65.52463362 -81.89414276 57.49477833 -70.84765625 49.71875 C-67.41534044 47.30200162 -64.01432689 44.84413241 -60.61743164 42.37792969 C-52.63221351 36.58093083 -44.57982632 30.88865807 -36.484375 25.24682617 C-30.74227509 21.23820094 -25.04524225 17.17207047 -19.375 13.0625 C-1.34785089 0 -1.34785089 0 0 0 Z " fill="#6F7072" transform="translate(673,207)"/>
<path d="M0 0 C3.85456918 1.45962147 4.92731798 3.18313732 6.62109375 6.875 C7.08193359 7.86113281 7.54277344 8.84726562 8.01757812 9.86328125 C8.48615234 10.89839844 8.95472656 11.93351562 9.4375 13 C10.37286512 15.02121894 11.30905705 17.04205546 12.24609375 19.0625 C12.70226074 20.05991211 13.15842773 21.05732422 13.62841797 22.08496094 C14.92215319 24.83455128 16.30776783 27.51447381 17.72265625 30.203125 C19.96524317 34.66257805 21.15815259 38.84892696 22 43.75 C22.15315674 44.56984375 22.30631348 45.3896875 22.46411133 46.234375 C24.21795245 55.79667468 25.77970638 65.39895363 27.33789062 74.99511719 C27.64049805 76.85378418 27.64049805 76.85378418 27.94921875 78.75 C28.12799561 79.85859375 28.30677246 80.9671875 28.4909668 82.109375 C28.94107656 84.89236164 28.94107656 84.89236164 29.56176758 87.15625 C30.25861468 90.08805465 30.0576384 93.00280337 30 96 C22.93500469 91.01294449 16.76751229 85.25025706 10.46435547 79.35986328 C6.35961069 75.54802127 2.0896621 71.92629806 -2.17578125 68.296875 C-3.36745686 67.28156606 -4.5588541 66.26593033 -5.75 65.25 C-6.35360352 64.73526123 -6.95720703 64.22052246 -7.57910156 63.69018555 C-11.52466688 60.30909911 -15.38094991 56.84889573 -19.1875 53.3125 C-23.82156081 49.02444906 -28.59247148 44.97639255 -33.5078125 41.015625 C-36.73073136 38.40900097 -39.86780877 35.71456573 -43 33 C-41.64898842 29.85044636 -40.32340553 28.19704987 -37.53515625 26.22265625 C-36.47192139 25.46154541 -36.47192139 25.46154541 -35.38720703 24.68505859 C-34.62005371 24.14961426 -33.85290039 23.61416992 -33.0625 23.0625 C-32.27214355 22.50127441 -31.48178711 21.94004883 -30.66748047 21.36181641 C-22.48895534 15.57880974 -14.21256586 9.93451936 -5.91259766 4.32763672 C-3.90332738 2.93289434 -1.94803109 1.47876964 0 0 Z " fill="#4E4E4E" transform="translate(653,418)"/>
<path d="M0 0 C3.96251624 1.3847503 6.83224864 3.22533822 10.125 5.8125 C16.27550924 10.53017685 22.62553872 14.89878139 29.06103516 19.21801758 C34.55482456 22.92918017 39.81401856 26.8700365 45 31 C43.92518582 34.22444254 43.32427942 34.83274667 40.8125 36.9375 C40.090625 37.55109375 39.36875 38.1646875 38.625 38.796875 C37.75875 39.52390625 36.8925 40.2509375 36 41 C33.76638584 42.89063534 31.53839883 44.78778942 29.3125 46.6875 C28.71244141 47.19893555 28.11238281 47.71037109 27.49414062 48.23730469 C23.34325068 51.79489527 19.30489584 55.45352714 15.3125 59.1875 C10.6174396 63.57792446 5.77152205 67.68779716 0.7578125 71.71484375 C-3.36860693 75.13404399 -7.27497503 78.77915717 -11.20703125 82.41796875 C-13.57961549 84.61136481 -15.96084388 86.79005066 -18.375 88.9375 C-18.93960937 89.44152344 -19.50421875 89.94554687 -20.0859375 90.46484375 C-22.60915958 92.48857084 -25.30298084 94.21715101 -28 96 C-21.17006363 36.85812229 -21.17006363 36.85812229 -8.28222656 15.1640625 C-6.66615829 12.43656266 -5.20641801 9.63987885 -3.74047852 6.82983398 C-2.53334006 4.53084022 -1.27277215 2.2631887 0 0 Z " fill="#201C29" transform="translate(371,418)"/>
<path d="M0 0 C5.24813504 1.5898762 9.54043291 3.94813356 14.21875 6.7578125 C17.36445184 8.16277484 19.59253092 8.23050526 23 8 C22.26983563 8.61388816 22.26983563 8.61388816 21.52492046 9.24017811 C19.6594515 11.39300719 19.61890733 12.3461717 19.60127258 15.15715027 C19.58873444 16.00268967 19.57619629 16.84822906 19.5632782 17.71939087 C19.56471329 18.64367889 19.56614838 19.56796692 19.56762695 20.52026367 C19.5574353 21.49605881 19.54724365 22.47185394 19.53674316 23.47721863 C19.50651174 26.7075263 19.49733163 29.93753795 19.48828125 33.16796875 C19.47144211 35.40571588 19.45329292 37.6434535 19.43388367 39.88117981 C19.38629461 45.77482128 19.3565428 51.66842423 19.33044434 57.56219482 C19.30068375 63.57474375 19.254138 69.58715983 19.20898438 75.59960938 C19.12284991 87.39967022 19.05554973 99.19975833 19 111 C15.23619486 109.55140237 12.17454871 107.9077874 8.8671875 105.5859375 C7.40925781 104.56693359 7.40925781 104.56693359 5.921875 103.52734375 C4.91640625 102.81707031 3.9109375 102.10679687 2.875 101.375 C1.89273437 100.68792969 0.91046875 100.00085938 -0.1015625 99.29296875 C-2.08017286 97.90533807 -4.05190515 96.50784777 -6.01660156 95.10058594 C-8.04684333 93.67110966 -10.10807704 92.2848821 -12.19433594 90.93847656 C-13.20012695 90.27041992 -14.20591797 89.60236328 -15.2421875 88.9140625 C-16.15597168 88.32834473 -17.06975586 87.74262695 -18.01123047 87.13916016 C-20 85 -20 85 -20.45263672 81.90112305 C-19.88555028 77.01359649 -18.78411979 72.41572631 -17.515625 67.66796875 C-17.25875916 66.6773494 -17.00189331 65.68673004 -16.73724365 64.66609192 C-15.91612549 61.50442083 -15.08372956 58.34586659 -14.25 55.1875 C-13.16744883 51.05713608 -12.09000034 46.92546646 -11.015625 42.79296875 C-10.75348206 41.78735901 -10.49133911 40.78174927 -10.22125244 39.7456665 C-8.42714335 32.80817152 -6.78015757 25.85079707 -5.30181885 18.8391571 C-3.93726688 12.42153825 -2.06760813 6.22482023 0 0 Z " fill="#434343" transform="translate(494,732)"/>
<path d="M0 0 C0.66 0 1.32 0 2 0 C3.63824041 3.66099727 5.27385568 7.32315561 6.90722656 10.98632812 C7.73109142 12.83262551 8.55692896 14.67804223 9.3828125 16.5234375 C12.09959488 22.61963212 14.75294663 28.72019945 17.16772461 34.94287109 C17.71477172 36.29500339 18.30486543 37.63064134 18.93969727 38.94384766 C20.98247128 43.17110421 21.1046781 45.47601421 20 50 C18.55712891 53.06445312 18.55712891 53.06445312 16.7265625 56.28125 C16.40215179 56.85782349 16.07774109 57.43439697 15.74349976 58.02844238 C14.71237697 59.85718999 13.66919721 61.6786921 12.625 63.5 C11.59062656 65.32272068 10.55880164 67.14685808 9.52792358 68.97155762 C8.59007081 70.62862477 7.64604048 72.28219115 6.70166016 73.93554688 C5.04539481 76.91825026 3.50213462 79.93722838 2 83 C1.34 83 0.68 83 0 83 C-0.43344727 82.18845459 -0.86689453 81.37690918 -1.31347656 80.54077148 C-2.93783805 77.50062833 -4.56310395 74.46097222 -6.18896484 71.42163086 C-6.88951753 70.11160055 -7.58971991 68.80138285 -8.28955078 67.4909668 C-9.30146422 65.59633572 -10.31467854 63.70240516 -11.328125 61.80859375 C-11.9355957 60.67220459 -12.54306641 59.53581543 -13.16894531 58.36499023 C-14.12552316 56.60705524 -15.08894053 54.85163994 -16.11798096 53.13511658 C-18.99845996 48.32533406 -18.99845996 48.32533406 -19.015625 44.69921875 C-17.68502077 39.85274874 -15.80186566 35.39303562 -13.75 30.8125 C-12.92788996 28.94032165 -12.10627218 27.06792706 -11.28515625 25.1953125 C-10.8895752 24.29973633 -10.49399414 23.40416016 -10.08642578 22.48144531 C-8.73811706 19.4018476 -7.45727492 16.30023978 -6.1875 13.1875 C-4.32296542 8.67506736 -2.2497295 4.33281236 0 0 Z " fill="#5C5C5C" transform="translate(512,353)"/>
<path d="M0 0 C3.36303954 9.24835873 3.14740047 19.05034635 -1 28 C-4.68122755 35.57899791 -10.81586132 42.32197407 -18.5 46 C-27.42107062 48.69416333 -38.1840274 48.40155786 -46.625 44.5 C-51.56345818 41.63228842 -56.19474284 38.07979 -59 33 C-57.6949824 29.08494719 -56.23772749 28.69054664 -52.6875 26.6875 C-51.5840625 26.06488281 -50.480625 25.44226563 -49.34375 24.80078125 C-46.48303272 23.26013795 -43.60833173 21.7967578 -40.6875 20.375 C-32.35508063 16.29743308 -24.35171126 11.61112998 -16.29296875 7.0234375 C-15.37950684 6.50491211 -14.46604492 5.98638672 -13.52490234 5.45214844 C-11.96790102 4.55666943 -10.41924447 3.64626343 -8.88525391 2.71191406 C-5.52319082 0.67695759 -4.0595849 0 0 0 Z " fill="#F8F8F8" transform="translate(609,313)"/>
<path d="M0 0 C3.31346362 1.27050769 6.41948928 2.68757638 9.52734375 4.3984375 C10.39125732 4.87200684 11.2551709 5.34557617 12.14526367 5.83349609 C13.06670166 6.34219238 13.98813965 6.85088867 14.9375 7.375 C16.91141455 8.45841311 18.88537421 9.54174403 20.859375 10.625 C21.87193359 11.181875 22.88449219 11.73875 23.92773438 12.3125 C28.84142203 15.01143588 33.76474485 17.69265034 38.6875 20.375 C40.42062194 21.32022261 42.15369635 22.26553239 43.88671875 23.2109375 C44.71091309 23.66049805 45.53510742 24.11005859 46.38427734 24.57324219 C50.92285156 27.04882812 55.46142578 29.52441406 60 32 C56.74854418 38.89240428 49.93941494 44.58529572 42.84375 47.37109375 C33.49504669 49.43859544 22.46422702 49.72702688 14.109375 44.61328125 C5.3593787 37.92115445 -0.50951602 30.15999882 -2 19 C-2.39988497 12.21028644 -2.43000373 6.4221527 0 0 Z " fill="#FAFAF9" transform="translate(417,312)"/>
<path d="M0 0 C0.66 0 1.32 0 2 0 C3.49121778 2.98243555 3.13001472 6.02615752 3.11352539 9.29541016 C3.11367142 10.04672714 3.11381744 10.79804413 3.1139679 11.5721283 C3.11326996 14.0611355 3.10548314 16.55006833 3.09765625 19.0390625 C3.09579165 20.76256265 3.09436794 22.48606334 3.09336853 24.20956421 C3.08954669 28.75025897 3.07971922 33.29092185 3.06866455 37.831604 C3.05844329 42.46325245 3.05386937 47.09490603 3.04882812 51.7265625 C3.03809667 60.81772236 3.02102422 69.90885853 3 79 C0.29698211 75.68348185 -1.92618083 72.53955933 -3.875 68.7265625 C-4.38546875 67.7365625 -4.8959375 66.7465625 -5.421875 65.7265625 C-5.94265625 64.70304687 -6.4634375 63.67953125 -7 62.625 C-8.04040028 60.5957044 -9.0820386 58.56704299 -10.125 56.5390625 C-10.61355469 55.57774414 -11.10210937 54.61642578 -11.60546875 53.62597656 C-12.78863756 51.39800672 -14.06488238 49.32292905 -15.4375 47.2109375 C-17.44077915 43.09419884 -17.20745323 41.3979162 -16 37 C-14.71862165 33.54013319 -13.25794002 30.17892989 -11.75 26.8125 C-10.93052649 24.9455157 -10.11151341 23.07832923 -9.29296875 21.2109375 C-8.70008057 19.86854004 -8.70008057 19.86854004 -8.09521484 18.49902344 C-6.32154879 14.45193344 -4.64778405 10.36609655 -2.97265625 6.27734375 C-2.05892047 4.13795436 -1.06487659 2.06767517 0 0 Z " fill="#241D36" transform="translate(510,357)"/>
<path d="M0 0 C0.66 0 1.32 0 2 0 C2.51046875 1.17755859 2.51046875 1.17755859 3.03125 2.37890625 C8.05320028 13.26425062 13.78827324 18.82155554 25 23 C25 23.66 25 24.32 25 25 C24.21496094 25.3403125 23.42992187 25.680625 22.62109375 26.03125 C11.73574938 31.05320028 6.17844446 36.78827324 2 48 C1.34 48 0.68 48 0 48 C-0.3403125 47.21496094 -0.680625 46.42992187 -1.03125 45.62109375 C-6.05320028 34.73574938 -11.78827324 29.17844446 -23 25 C-23 24.34 -23 23.68 -23 23 C-22.21496094 22.6596875 -21.42992187 22.319375 -20.62109375 21.96875 C-9.73574938 16.94679972 -4.17844446 11.21172676 0 0 Z " fill="#7D7D7D" transform="translate(967,944)"/>
<path d="M0 0 C5.24813504 1.5898762 9.54043291 3.94813356 14.21875 6.7578125 C17.36445184 8.16277484 19.59253092 8.23050526 23 8 C22.26983563 8.61858619 22.26983563 8.61858619 21.52492046 9.24966908 C19.68638994 11.35996723 19.6192928 12.24820182 19.60127258 15.0052948 C19.58873444 15.81717758 19.57619629 16.62906036 19.5632782 17.46554565 C19.56471329 18.35243073 19.56614838 19.2393158 19.56762695 20.15307617 C19.5574353 21.08985703 19.54724365 22.02663788 19.53674316 22.99180603 C19.50651724 26.09225368 19.49733251 29.19239288 19.48828125 32.29296875 C19.47144169 34.44103531 19.45329244 36.58909196 19.43388367 38.73713684 C19.38629909 44.39404203 19.3565444 50.0509071 19.33044434 55.70794678 C19.30068148 61.4792066 19.25413651 67.25032806 19.20898438 73.02148438 C19.12285501 84.347584 19.05555258 95.67371203 19 107 C18.67 107 18.34 107 18 107 C18 81.59 18 56.18 18 30 C16.02 29.34 14.04 28.68 12 28 C9.13877184 26.35588652 6.36866635 24.6148371 3.59179688 22.83398438 C1.0634261 21.23041041 -1.14397002 19.95200999 -4 19 C-4.22937511 14.28347435 -3.46206455 10.6025727 -2 6.125 C-1.62875 4.97257813 -1.2575 3.82015625 -0.875 2.6328125 C-0.58625 1.76398437 -0.2975 0.89515625 0 0 Z " fill="#353637" transform="translate(494,732)"/>
<path d="M0 0 C0.66 0.33 1.32 0.66 2 1 C0.35 2.32 -1.3 3.64 -3 5 C-2.34 6.32 -1.68 7.64 -1 9 C-3.4375 8.1875 -3.4375 8.1875 -6 7 C-6.33 6.01 -6.66 5.02 -7 4 C-1.7265625 0.77734375 -1.7265625 0.77734375 0 0 Z " fill="#2D2F30" transform="translate(640,272)"/>
<path d="M0 0 C4 2 4 2 6 4 C5.01 4.66 4.02 5.32 3 6 C2.34 6.99 1.68 7.98 1 9 C0.67 6.03 0.34 3.06 0 0 Z " fill="#6C6D6C" transform="translate(353,207)"/>
<path d="M0 0 C0.33 0 0.66 0 1 0 C1 1.98 1 3.96 1 6 C1.66 6 2.32 6 3 6 C3 5.34 3 4.68 3 4 C3.99 4.33 4.98 4.66 6 5 C3.69 6.65 1.38 8.3 -1 10 C-0.67 6.7 -0.34 3.4 0 0 Z " fill="#565060" transform="translate(344,504)"/>
<path d="M0 0 C0.33 0.99 0.66 1.98 1 3 C-1.64 4.98 -4.28 6.96 -7 9 C-7.66 8.67 -8.32 8.34 -9 8 C-6.03 5.36 -3.06 2.72 0 0 Z " fill="#2E2D49" transform="translate(381,493)"/>
<path d="M0 0 C0.66 0.33 1.32 0.66 2 1 C0.02 3.31 -1.96 5.62 -4 8 C-4.33 7.34 -4.66 6.68 -5 6 C-2.59016393 1.29508197 -2.59016393 1.29508197 0 0 Z " fill="#464864" transform="translate(610,339)"/>
<path d="M0 0 C-0.33 0.99 -0.66 1.98 -1 3 C-2.64551962 3.71727778 -4.31422289 4.38325228 -6 5 C-6.66 5.66 -7.32 6.32 -8 7 C-8 5.68 -8 4.36 -8 3 C-5.12645755 0.82542733 -3.63563409 0 0 0 Z " fill="#434442" transform="translate(384,295)"/>
<path d="M0 0 C0.99 0.33 1.98 0.66 3 1 C3 2.32 3 3.64 3 5 C0.525 4.01 0.525 4.01 -2 3 C-2 2.34 -2 1.68 -2 1 C-1.34 0.67 -0.68 0.34 0 0 Z " fill="#2E2F44" transform="translate(431,682)"/>
<path d="M0 0 C-0.99 1.485 -0.99 1.485 -2 3 C-3.32 2.67 -4.64 2.34 -6 2 C-6 1.34 -6 0.68 -6 0 C-3.50907189 -1.24546405 -2.58919267 -0.7767578 0 0 Z " fill="#605F5E" transform="translate(425,241)"/>
</svg>
